<svg width="128" height="128" viewBox="0 0 128 128" fill="none" xmlns="http://www.w3.org/2000/svg">
<path d="M63.3087 118C26.7503 118 13.4705 87.1706 13.0018 53.8372C12.8456 34.7449 22.6882 18 42.0611 18C61.4339 18 69.2455 31.1455 69.2455 47.8905C69.2455 61.662 67.0583 77.3114 53.7785 87.4836C51.2788 89.3615 54.2472 92.9609 56.5907 91.2394C71.1203 80.2848 74.245 64.4789 73.9325 43.3521C73.7763 29.1111 77.9946 18 93.9303 18C108.304 18 114.084 28.9546 112.834 56.1847C111.272 88.1095 93.1491 118 63.3087 118Z" fill="url(#paint0_linear_2072_126)"/>
<defs>
<linearGradient id="paint0_linear_2072_126" x1="22.7701" y1="22.5872" x2="80.1009" y2="111.032" gradientUnits="userSpaceOnUse">
<stop stop-color="#FAA357"/>
<stop offset="1" stop-color="#FF7431"/>
</linearGradient>
</defs>
</svg>
