<svg width="128" height="128" viewBox="0 0 128 128" fill="none" xmlns="http://www.w3.org/2000/svg">
<g clip-path="url(#clip0_42_387)">
<path d="M64 0C99.3462 0 128 28.6538 128 64C128 99.3462 99.3462 128 64 128C28.6538 128 0 99.3462 0 64C0 28.6538 28.6538 0 64 0ZM16.1279 39.9922L34.2002 90.8965H51.5518L60.0713 66.5605H90.2002V88.6641C87.6802 88.3761 85.3761 87.9439 83.2881 87.2959C80.9841 86.6479 78.68 86.2157 76.376 85.9277V76.4961H59.3115V90.8965C66.8446 88.7342 74.9865 88.6662 82.5576 90.6934L84.0186 91.0996C91.5895 93.1267 99.7307 93.0586 107.264 90.8965V62.96H77.0957V43.5918H90.9199V53.6719H107.984V39.9922H51.624L36.2158 84.2002L20.5195 39.9922H16.1279Z" fill="#FD9319"/>
</g>
<defs>
<clipPath id="clip0_42_387">
<rect width="128" height="128" fill="white"/>
</clipPath>
</defs>
</svg>
